<svg xmlns="http://www.w3.org/2000/svg" viewBox="0 0 1024 1024" fill="none">
  <defs>
    <linearGradient id="g" x1="160" y1="120" x2="864" y2="904" gradientUnits="userSpaceOnUse">
      <stop stop-color="#B8860B"/>
      <stop offset="1" stop-color="#8D6110"/>
    </linearGradient>
  </defs>
  <rect x="128" y="128" width="768" height="768" rx="180" fill="url(#g)"/>
  <rect x="176" y="176" width="672" height="672" rx="140" fill="white" fill-opacity="0.12"/>
  <path d="M512 248v126M449 311h126" stroke="white" stroke-width="42" stroke-linecap="round"/>
  <path d="M252 474L512 290l260 184v312a36 36 0 0 1-36 36H288a36 36 0 0 1-36-36V474z" fill="white"/>
  <path d="M357 608a155 155 0 1 1 310 0v214H357V608z" fill="#B8860B"/>
  <path d="M512 590v232" stroke="#8D6110" stroke-width="16" stroke-linecap="round" opacity="0.35"/>
  <circle cx="512" cy="704" r="22" fill="#8D6110" opacity="0.7"/>
</svg>
